<svg width="663" height="586" viewBox="0 0 663 586" fill="none" xmlns="http://www.w3.org/2000/svg">
<g filter="url(#filter0_d_36_52)">
<path d="M9.63574 166.639C10.0393 165.832 10.2051 165.865 10.1942 166.663C39.5367 167.943 98.9889 171.573 106.488 176.073C172.898 194.717 310.902 291.887 331.638 531.407C-66.8177 531.407 9.96707 183.279 10.1942 166.663C10.0068 166.655 9.82064 166.647 9.63574 166.639Z" fill="url(#paint0_linear_36_52)"/>
</g>
<g filter="url(#filter1_d_36_52)">
<path d="M653.145 166.639C652.741 165.832 652.576 165.865 652.587 166.663C623.244 167.943 563.792 171.573 556.293 176.073C489.883 194.717 351.879 291.887 331.143 531.407C729.598 531.407 652.814 183.279 652.587 166.663C652.774 166.655 652.96 166.647 653.145 166.639Z" fill="url(#paint1_linear_36_52)"/>
</g>
<g filter="url(#filter2_d_36_52)">
<path fill-rule="evenodd" clip-rule="evenodd" d="M331.114 531.695C464.864 502.857 565.097 383.893 565.097 241.518C565.097 184.464 549.001 131.17 521.102 85.9282C387.352 114.766 287.119 233.73 287.119 376.105C287.119 433.158 303.215 486.453 331.114 531.695Z" fill="url(#paint2_linear_36_52)"/>
</g>
<g filter="url(#filter3_d_36_52)">
<path fill-rule="evenodd" clip-rule="evenodd" d="M332.43 531.314C198.679 502.477 98.4458 383.513 98.4458 241.138C98.4458 184.084 114.542 130.79 142.44 85.5481C276.191 114.386 376.424 233.35 376.424 375.725C376.424 432.778 360.328 486.073 332.43 531.314Z" fill="url(#paint3_linear_36_52)"/>
</g>
<g filter="url(#filter4_d_36_52)">
<path fill-rule="evenodd" clip-rule="evenodd" d="M331.184 531.7C403.195 474.904 449.378 387.156 449.378 288.686C449.378 190.578 403.534 103.113 331.977 46.2998C260.176 103.225 214.166 190.929 214.166 289.315C214.166 387.339 259.838 474.759 331.184 531.7Z" fill="url(#paint4_linear_36_52)"/>
</g>
<g filter="url(#filter5_df_36_52)">
<path fill-rule="evenodd" clip-rule="evenodd" d="M332.199 530.443C356.845 493.84 372.651 437.289 372.651 373.829C372.651 310.602 356.961 254.233 332.471 217.619C307.897 254.305 292.15 310.828 292.15 374.234C292.15 437.407 307.781 493.746 332.199 530.443Z" fill="url(#paint5_linear_36_52)" shape-rendering="crispEdges"/>
</g>
<defs>
<filter id="filter0_d_36_52" x="0.109863" y="166.049" width="335.528" height="373.358" filterUnits="userSpaceOnUse" color-interpolation-filters="sRGB">
<feFlood flood-opacity="0" result="BackgroundImageFix"/>
<feColorMatrix in="SourceAlpha" type="matrix" values="0 0 0 0 0 0 0 0 0 0 0 0 0 0 0 0 0 0 127 0" result="hardAlpha"/>
<feOffset dy="4"/>
<feGaussianBlur stdDeviation="2"/>
<feComposite in2="hardAlpha" operator="out"/>
<feColorMatrix type="matrix" values="0 0 0 0 0 0 0 0 0 0 0 0 0 0 0 0 0 0 0.25 0"/>
<feBlend mode="normal" in2="BackgroundImageFix" result="effect1_dropShadow_36_52"/>
<feBlend mode="normal" in="SourceGraphic" in2="effect1_dropShadow_36_52" result="shape"/>
</filter>
<filter id="filter1_d_36_52" x="327.143" y="166.049" width="335.528" height="373.358" filterUnits="userSpaceOnUse" color-interpolation-filters="sRGB">
<feFlood flood-opacity="0" result="BackgroundImageFix"/>
<feColorMatrix in="SourceAlpha" type="matrix" values="0 0 0 0 0 0 0 0 0 0 0 0 0 0 0 0 0 0 127 0" result="hardAlpha"/>
<feOffset dy="4"/>
<feGaussianBlur stdDeviation="2"/>
<feComposite in2="hardAlpha" operator="out"/>
<feColorMatrix type="matrix" values="0 0 0 0 0 0 0 0 0 0 0 0 0 0 0 0 0 0 0.25 0"/>
<feBlend mode="normal" in2="BackgroundImageFix" result="effect1_dropShadow_36_52"/>
<feBlend mode="normal" in="SourceGraphic" in2="effect1_dropShadow_36_52" result="shape"/>
</filter>
<filter id="filter2_d_36_52" x="271.119" y="73.9282" width="309.978" height="477.766" filterUnits="userSpaceOnUse" color-interpolation-filters="sRGB">
<feFlood flood-opacity="0" result="BackgroundImageFix"/>
<feColorMatrix in="SourceAlpha" type="matrix" values="0 0 0 0 0 0 0 0 0 0 0 0 0 0 0 0 0 0 127 0" result="hardAlpha"/>
<feOffset dy="4"/>
<feGaussianBlur stdDeviation="8"/>
<feComposite in2="hardAlpha" operator="out"/>
<feColorMatrix type="matrix" values="0 0 0 0 0.447917 0 0 0 0 0.447917 0 0 0 0 0.447917 0 0 0 0.25 0"/>
<feBlend mode="normal" in2="BackgroundImageFix" result="effect1_dropShadow_36_52"/>
<feBlend mode="normal" in="SourceGraphic" in2="effect1_dropShadow_36_52" result="shape"/>
</filter>
<filter id="filter3_d_36_52" x="82.4458" y="73.5481" width="309.979" height="477.766" filterUnits="userSpaceOnUse" color-interpolation-filters="sRGB">
<feFlood flood-opacity="0" result="BackgroundImageFix"/>
<feColorMatrix in="SourceAlpha" type="matrix" values="0 0 0 0 0 0 0 0 0 0 0 0 0 0 0 0 0 0 127 0" result="hardAlpha"/>
<feOffset dy="4"/>
<feGaussianBlur stdDeviation="8"/>
<feComposite in2="hardAlpha" operator="out"/>
<feColorMatrix type="matrix" values="0 0 0 0 0.447917 0 0 0 0 0.447917 0 0 0 0 0.447917 0 0 0 0.25 0"/>
<feBlend mode="normal" in2="BackgroundImageFix" result="effect1_dropShadow_36_52"/>
<feBlend mode="normal" in="SourceGraphic" in2="effect1_dropShadow_36_52" result="shape"/>
</filter>
<filter id="filter4_d_36_52" x="164.166" y="0.299805" width="335.212" height="585.4" filterUnits="userSpaceOnUse" color-interpolation-filters="sRGB">
<feFlood flood-opacity="0" result="BackgroundImageFix"/>
<feColorMatrix in="SourceAlpha" type="matrix" values="0 0 0 0 0 0 0 0 0 0 0 0 0 0 0 0 0 0 127 0" result="hardAlpha"/>
<feOffset dy="4"/>
<feGaussianBlur stdDeviation="25"/>
<feComposite in2="hardAlpha" operator="out"/>
<feColorMatrix type="matrix" values="0 0 0 0 0.447917 0 0 0 0 0.447917 0 0 0 0 0.447917 0 0 0 0.25 0"/>
<feBlend mode="normal" in2="BackgroundImageFix" result="effect1_dropShadow_36_52"/>
<feBlend mode="normal" in="SourceGraphic" in2="effect1_dropShadow_36_52" result="shape"/>
</filter>
<filter id="filter5_df_36_52" x="288.15" y="213.719" width="88.501" height="324.723" filterUnits="userSpaceOnUse" color-interpolation-filters="sRGB">
<feFlood flood-opacity="0" result="BackgroundImageFix"/>
<feColorMatrix in="SourceAlpha" type="matrix" values="0 0 0 0 0 0 0 0 0 0 0 0 0 0 0 0 0 0 127 0" result="hardAlpha"/>
<feOffset dy="4"/>
<feGaussianBlur stdDeviation="2"/>
<feComposite in2="hardAlpha" operator="out"/>
<feColorMatrix type="matrix" values="0 0 0 0 1 0 0 0 0 0.6875 0 0 0 0 0.6875 0 0 0 0.25 0"/>
<feBlend mode="normal" in2="BackgroundImageFix" result="effect1_dropShadow_36_52"/>
<feBlend mode="normal" in="SourceGraphic" in2="effect1_dropShadow_36_52" result="shape"/>
<feGaussianBlur stdDeviation="1.95" result="effect2_foregroundBlur_36_52"/>
</filter>
<linearGradient id="paint0_linear_36_52" x1="11.6568" y1="166.049" x2="331.143" y2="544.024" gradientUnits="userSpaceOnUse">
<stop offset="0.00717264" stop-color="#F2A063"/>
<stop offset="0.64" stop-color="#FC967A"/>
<stop offset="1" stop-color="#FBD8D1"/>
</linearGradient>
<linearGradient id="paint1_linear_36_52" x1="652.516" y1="166.049" x2="336.803" y2="525.156" gradientUnits="userSpaceOnUse">
<stop stop-color="#FFAA68"/>
<stop offset="0.615" stop-color="#FE947E"/>
<stop offset="1" stop-color="#FBDCD9"/>
</linearGradient>
<linearGradient id="paint2_linear_36_52" x1="516.671" y1="85.9282" x2="333.029" y2="531.196" gradientUnits="userSpaceOnUse">
<stop stop-color="#EE8A76"/>
<stop offset="0.355" stop-color="#FFA47A"/>
<stop offset="0.67374" stop-color="#FFAF9A"/>
<stop offset="1" stop-color="#FBDAD5"/>
</linearGradient>
<linearGradient id="paint3_linear_36_52" x1="146.872" y1="85.5481" x2="330.513" y2="530.816" gradientUnits="userSpaceOnUse">
<stop stop-color="#EE8A76"/>
<stop offset="0.355" stop-color="#FFA47A"/>
<stop offset="0.67374" stop-color="#FFAF9A"/>
<stop offset="1" stop-color="#FBDAD5"/>
</linearGradient>
<linearGradient id="paint4_linear_36_52" x1="331.772" y1="46.2998" x2="331.772" y2="531.7" gradientUnits="userSpaceOnUse">
<stop stop-color="#F39069"/>
<stop offset="0.273283" stop-color="#FEAC86"/>
<stop offset="0.417325" stop-color="#FFB49D"/>
<stop offset="1" stop-color="#FCDBD6"/>
</linearGradient>
<linearGradient id="paint5_linear_36_52" x1="332.4" y1="217.619" x2="332.4" y2="530.443" gradientUnits="userSpaceOnUse">
<stop stop-color="#FFC3AA" stop-opacity="0.8"/>
<stop offset="1" stop-color="#FFF2F1"/>
</linearGradient>
</defs>
</svg>
