<svg width="1543" height="586" viewBox="0 0 1543 586" fill="none" xmlns="http://www.w3.org/2000/svg">
<path d="M905.229 381C908.429 386.6 911.429 391.8 914.229 396.6C917.229 401.4 919.929 405.6 922.329 409.2C924.729 412.8 926.729 415.6 928.329 417.6C930.129 419.6 931.629 420.6 932.829 420.6V423.3H897.729V420.6C898.929 420.6 898.429 417.5 896.229 411.3C894.029 405.1 890.129 397.2 884.529 387.6L838.929 308.7H805.029V397.5C805.029 402.3 805.229 406.3 805.629 409.5C806.229 412.5 806.929 414.8 807.729 416.4C808.529 418 809.329 419.1 810.129 419.7C810.929 420.3 811.529 420.6 811.929 420.6V423.3H776.829V420.6C777.229 420.6 777.829 420.3 778.629 419.7C779.429 419.1 780.129 418 780.729 416.4C781.529 414.8 782.229 412.5 782.829 409.5C783.429 406.3 783.729 402.3 783.729 397.5V238.5C783.729 233.5 783.429 229.5 782.829 226.5C782.229 223.5 781.529 221.2 780.729 219.6C780.129 218 779.429 216.9 778.629 216.3C777.829 215.7 777.229 215.4 776.829 215.4V212.7H779.529C788.529 212.5 797.829 211.9 807.429 210.9C817.029 209.9 826.229 209.4 835.029 209.4C850.229 209.4 863.029 210.7 873.429 213.3C883.829 215.7 892.229 219.1 898.629 223.5C905.029 227.9 909.629 233.2 912.429 239.4C915.229 245.4 916.629 252 916.629 259.2C916.629 265.2 915.629 270.8 913.629 276C911.829 281.2 908.729 285.9 904.329 290.1C900.129 294.3 894.529 297.9 887.529 300.9C880.729 303.7 872.429 305.8 862.629 307.2L905.229 381ZM805.029 213.6V306.3H835.029C841.629 306.3 848.429 305.6 855.429 304.2C862.629 302.8 869.129 300.3 874.929 296.7C880.929 293.1 885.829 288.3 889.629 282.3C893.629 276.1 895.629 268.4 895.629 259.2C895.629 250 893.629 242.4 889.629 236.4C885.829 230.2 880.929 225.3 874.929 221.7C869.129 218.1 862.629 215.6 855.429 214.2C848.429 212.6 841.629 211.8 835.029 211.8C830.429 211.8 825.529 212 820.329 212.4C815.329 212.8 810.229 213.2 805.029 213.6ZM929.494 370.2C926.894 360.4 926.294 350.7 927.694 341.1C929.094 331.5 932.094 322.7 936.694 314.7C941.494 306.5 947.694 299.4 955.294 293.4C962.894 287.4 971.594 283.1 981.394 280.5C991.794 277.7 1001.79 277.1 1011.39 278.7C1020.99 280.1 1029.69 283 1037.49 287.4C1045.29 291.8 1051.99 297.4 1057.59 304.2C1063.19 311 1067.19 318.4 1069.59 326.4C1062.39 326.4 1054.59 326.7 1046.19 327.3C1037.99 327.9 1030.49 329 1023.69 330.6C1029.29 330.4 1034.39 331.4 1038.99 333.6C1043.79 335.6 1047.89 338.4 1051.29 342C1054.69 345.6 1057.39 349.8 1059.39 354.6C1061.39 359.4 1062.59 364.4 1062.99 369.6C1063.79 380.4 1061.49 389.8 1056.09 397.8C1050.89 405.6 1043.89 411.8 1035.09 416.4C1026.49 420.8 1016.79 423.3 1005.99 423.9C995.194 424.7 984.694 423.3 974.494 419.7C964.494 416.1 955.394 410.3 947.194 402.3C938.994 394.1 933.094 383.4 929.494 370.2ZM947.194 348.6C947.794 354.4 948.694 359.8 949.894 364.8C953.694 379.2 959.494 390.5 967.294 398.7C975.094 406.9 983.494 412.5 992.494 415.5C1001.69 418.5 1010.89 419.2 1020.09 417.6C1029.29 415.8 1037.29 412.3 1044.09 407.1C1050.89 401.9 1055.79 395.3 1058.79 387.3C1061.99 379.1 1062.09 370 1059.09 360C1057.49 354.6 1054.89 349.7 1051.29 345.3C1047.69 340.9 1043.29 337.7 1038.09 335.7C1032.89 333.5 1026.99 332.7 1020.39 333.3C1013.79 333.7 1006.79 336.1 999.394 340.5C992.194 344.7 985.094 347.7 978.094 349.5C971.294 351.1 964.994 351.7 959.194 351.3C956.994 351.1 954.894 350.9 952.894 350.7C950.894 350.3 948.994 349.6 947.194 348.6ZM1046.49 324.9C1043.69 318.5 1040.09 312.4 1035.69 306.6C1031.29 300.6 1026.29 295.5 1020.69 291.3C1015.29 287.1 1009.29 284.1 1002.69 282.3C996.094 280.5 989.194 280.6 981.994 282.6C975.194 284.4 969.494 287.5 964.894 291.9C960.294 296.3 956.594 301.4 953.794 307.2C951.194 313 949.294 319.3 948.094 326.1C947.094 332.9 946.794 339.6 947.194 346.2C950.594 347.8 954.594 348.8 959.194 349.2C964.794 349.6 970.894 349 977.494 347.4C984.294 345.6 991.194 342.7 998.194 338.7C1006.59 333.9 1014.99 330.5 1023.39 328.5C1031.79 326.5 1039.49 325.3 1046.49 324.9ZM1202.19 248.4C1207.79 238.8 1211.09 230.9 1212.09 224.7C1213.09 218.5 1212.89 215.4 1211.49 215.4H1170.09C1162.49 216.2 1155.69 217.3 1149.69 218.7C1143.69 220.1 1138.09 221.8 1132.89 223.8C1127.89 225.8 1123.09 228 1118.49 230.4C1114.09 232.8 1109.59 235.4 1104.99 238.2H1102.29V212.7H1256.19V215.4C1253.99 215.4 1251.39 217 1248.39 220.2C1245.59 223.2 1242.49 227.2 1239.09 232.2L1230.09 245.4L1223.49 255L1132.89 387.6C1129.69 393.2 1127.29 398.1 1125.69 402.3C1124.09 406.3 1122.99 409.7 1122.39 412.5C1121.79 415.1 1121.59 417.1 1121.79 418.5C1121.99 419.9 1122.39 420.6 1122.99 420.6H1173.09C1180.49 419.8 1187.19 418.7 1193.19 417.3C1199.39 415.9 1204.99 414.3 1209.99 412.5C1215.19 410.5 1219.99 408.3 1224.39 405.9C1228.99 403.5 1233.59 400.9 1238.19 398.1H1240.59V423.3H1078.59V420.6C1079.79 420.6 1081.39 419.6 1083.39 417.6C1085.59 415.4 1088.09 412.5 1090.89 408.9C1093.69 405.3 1096.79 401.1 1100.19 396.3C1103.79 391.5 1107.49 386.4 1111.29 381L1202.19 248.4ZM1252.93 370.2C1250.33 360.4 1249.73 350.7 1251.13 341.1C1252.53 331.5 1255.53 322.7 1260.13 314.7C1264.93 306.5 1271.13 299.4 1278.73 293.4C1286.33 287.4 1295.03 283.1 1304.83 280.5C1315.23 277.7 1325.23 277.1 1334.83 278.7C1344.43 280.1 1353.13 283 1360.93 287.4C1368.73 291.8 1375.43 297.4 1381.03 304.2C1386.63 311 1390.63 318.4 1393.03 326.4C1385.83 326.4 1378.03 326.7 1369.63 327.3C1361.43 327.9 1353.93 329 1347.13 330.6C1352.73 330.4 1357.83 331.4 1362.43 333.6C1367.23 335.6 1371.33 338.4 1374.73 342C1378.13 345.6 1380.83 349.8 1382.83 354.6C1384.83 359.4 1386.03 364.4 1386.43 369.6C1387.23 380.4 1384.93 389.8 1379.53 397.8C1374.33 405.6 1367.33 411.8 1358.53 416.4C1349.93 420.8 1340.23 423.3 1329.43 423.9C1318.63 424.7 1308.13 423.3 1297.93 419.7C1287.93 416.1 1278.83 410.3 1270.63 402.3C1262.43 394.1 1256.53 383.4 1252.93 370.2ZM1270.63 348.6C1271.23 354.4 1272.13 359.8 1273.33 364.8C1277.13 379.2 1282.93 390.5 1290.73 398.7C1298.53 406.9 1306.93 412.5 1315.93 415.5C1325.13 418.5 1334.33 419.2 1343.53 417.6C1352.73 415.8 1360.73 412.3 1367.53 407.1C1374.33 401.9 1379.23 395.3 1382.23 387.3C1385.43 379.1 1385.53 370 1382.53 360C1380.93 354.6 1378.33 349.7 1374.73 345.3C1371.13 340.9 1366.73 337.7 1361.53 335.7C1356.33 333.5 1350.43 332.7 1343.83 333.3C1337.23 333.7 1330.23 336.1 1322.83 340.5C1315.63 344.7 1308.53 347.7 1301.53 349.5C1294.73 351.1 1288.43 351.7 1282.63 351.3C1280.43 351.1 1278.33 350.9 1276.33 350.7C1274.33 350.3 1272.43 349.6 1270.63 348.6ZM1369.93 324.9C1367.13 318.5 1363.53 312.4 1359.13 306.6C1354.73 300.6 1349.73 295.5 1344.13 291.3C1338.73 287.1 1332.73 284.1 1326.13 282.3C1319.53 280.5 1312.63 280.6 1305.43 282.6C1298.63 284.4 1292.93 287.5 1288.33 291.9C1283.73 296.3 1280.03 301.4 1277.23 307.2C1274.63 313 1272.73 319.3 1271.53 326.1C1270.53 332.9 1270.23 339.6 1270.63 346.2C1274.03 347.8 1278.03 348.8 1282.63 349.2C1288.23 349.6 1294.33 349 1300.93 347.4C1307.73 345.6 1314.63 342.7 1321.63 338.7C1330.03 333.9 1338.43 330.5 1346.83 328.5C1355.23 326.5 1362.93 325.3 1369.93 324.9ZM1408.14 278.7H1435.74V356.4C1436.94 347.2 1438.54 338.9 1440.54 331.5C1442.74 324.1 1445.14 317.5 1447.74 311.7C1449.74 307.5 1452.04 303.4 1454.64 299.4C1457.24 295.4 1460.24 291.8 1463.64 288.6C1467.24 285.2 1471.04 282.5 1475.04 280.5C1479.24 278.5 1483.84 277.5 1488.84 277.5C1497.04 277.5 1503.64 279.2 1508.64 282.6C1513.84 286 1517.84 290.4 1520.64 295.8C1523.64 301.2 1525.64 307.3 1526.64 314.1C1527.84 320.9 1528.44 327.7 1528.44 334.5V397.5C1528.44 402.5 1528.64 406.5 1529.04 409.5C1529.64 412.5 1530.34 414.9 1531.14 416.7C1531.94 418.3 1532.74 419.4 1533.54 420C1534.34 420.4 1534.94 420.6 1535.34 420.6V423.3H1500.54V420.6C1500.94 420.6 1501.54 420.4 1502.34 420C1503.14 419.4 1503.84 418.3 1504.44 416.7C1505.24 414.9 1505.94 412.5 1506.54 409.5C1507.14 406.5 1507.44 402.5 1507.44 397.5V334.5C1507.44 330.9 1507.24 326.6 1506.84 321.6C1506.44 316.4 1505.54 311.4 1504.14 306.6C1502.94 301.6 1501.04 297.1 1498.44 293.1C1496.04 289.1 1492.74 286.4 1488.54 285C1484.34 283.6 1480.24 283.7 1476.24 285.3C1472.24 286.7 1468.54 288.9 1465.14 291.9C1461.94 294.9 1459.04 298.3 1456.44 302.1C1453.84 305.9 1451.74 309.5 1450.14 312.9C1445.74 322.5 1442.24 334.3 1439.64 348.3C1437.04 362.1 1435.74 378.5 1435.74 397.5C1435.74 402.5 1435.94 406.5 1436.34 409.5C1436.94 412.5 1437.64 414.9 1438.44 416.7C1439.24 418.3 1440.04 419.4 1440.84 420C1441.64 420.4 1442.24 420.6 1442.64 420.6V423.3H1408.14V420.6C1408.54 420.6 1409.14 420.4 1409.94 420C1410.74 419.4 1411.44 418.3 1412.04 416.7C1412.84 414.9 1413.54 412.5 1414.14 409.5C1414.74 406.5 1415.04 402.5 1415.04 397.5V304.5C1415.04 299.7 1414.74 295.8 1414.14 292.8C1413.54 289.6 1412.84 287.2 1412.04 285.6C1411.44 284 1410.74 282.9 1409.94 282.3C1409.14 281.7 1408.54 281.4 1408.14 281.4V278.7Z" fill="#2F2F2F"/>
<g filter="url(#filter0_d_34_57)">
<path d="M10.3062 166.639C10.7097 165.832 10.8755 165.865 10.8646 166.663C40.2071 167.943 99.6593 171.573 107.158 176.073C173.568 194.717 311.572 291.887 332.308 531.407C-66.1473 531.407 10.6375 183.279 10.8646 166.663C10.6772 166.655 10.4911 166.647 10.3062 166.639Z" fill="url(#paint0_linear_34_57)"/>
</g>
<g filter="url(#filter1_d_34_57)">
<path d="M653.815 166.639C653.411 165.832 653.246 165.865 653.257 166.663C623.914 167.943 564.462 171.573 556.963 176.073C490.553 194.717 352.549 291.887 331.813 531.407C730.268 531.407 653.484 183.279 653.257 166.663C653.444 166.655 653.63 166.647 653.815 166.639Z" fill="url(#paint1_linear_34_57)"/>
</g>
<g filter="url(#filter2_d_34_57)">
<path fill-rule="evenodd" clip-rule="evenodd" d="M331.784 531.695C465.534 502.857 565.767 383.893 565.767 241.518C565.767 184.464 549.671 131.17 521.773 85.9282C388.022 114.766 287.79 233.73 287.79 376.105C287.79 433.158 303.885 486.453 331.784 531.695Z" fill="url(#paint2_linear_34_57)"/>
</g>
<g filter="url(#filter3_d_34_57)">
<path fill-rule="evenodd" clip-rule="evenodd" d="M333.1 531.314C199.35 502.477 99.1162 383.513 99.1162 241.138C99.1162 184.084 115.212 130.79 143.111 85.5481C276.861 114.386 377.095 233.35 377.095 375.725C377.095 432.778 360.999 486.073 333.1 531.314Z" fill="url(#paint3_linear_34_57)"/>
</g>
<g filter="url(#filter4_d_34_57)">
<path fill-rule="evenodd" clip-rule="evenodd" d="M331.854 531.7C403.865 474.904 450.048 387.156 450.048 288.686C450.048 190.578 404.204 103.113 332.647 46.2998C260.846 103.225 214.836 190.929 214.836 289.315C214.836 387.339 260.508 474.759 331.854 531.7Z" fill="url(#paint4_linear_34_57)"/>
</g>
<g filter="url(#filter5_df_34_57)">
<path fill-rule="evenodd" clip-rule="evenodd" d="M332.87 530.443C357.515 493.84 373.321 437.289 373.321 373.829C373.321 310.602 357.631 254.233 333.141 217.619C308.567 254.305 292.82 310.828 292.82 374.234C292.82 437.407 308.451 493.746 332.87 530.443Z" fill="url(#paint5_linear_34_57)" shape-rendering="crispEdges"/>
</g>
<defs>
<filter id="filter0_d_34_57" x="0.780273" y="166.049" width="335.528" height="373.358" filterUnits="userSpaceOnUse" color-interpolation-filters="sRGB">
<feFlood flood-opacity="0" result="BackgroundImageFix"/>
<feColorMatrix in="SourceAlpha" type="matrix" values="0 0 0 0 0 0 0 0 0 0 0 0 0 0 0 0 0 0 127 0" result="hardAlpha"/>
<feOffset dy="4"/>
<feGaussianBlur stdDeviation="2"/>
<feComposite in2="hardAlpha" operator="out"/>
<feColorMatrix type="matrix" values="0 0 0 0 0 0 0 0 0 0 0 0 0 0 0 0 0 0 0.25 0"/>
<feBlend mode="normal" in2="BackgroundImageFix" result="effect1_dropShadow_34_57"/>
<feBlend mode="normal" in="SourceGraphic" in2="effect1_dropShadow_34_57" result="shape"/>
</filter>
<filter id="filter1_d_34_57" x="327.813" y="166.049" width="335.528" height="373.358" filterUnits="userSpaceOnUse" color-interpolation-filters="sRGB">
<feFlood flood-opacity="0" result="BackgroundImageFix"/>
<feColorMatrix in="SourceAlpha" type="matrix" values="0 0 0 0 0 0 0 0 0 0 0 0 0 0 0 0 0 0 127 0" result="hardAlpha"/>
<feOffset dy="4"/>
<feGaussianBlur stdDeviation="2"/>
<feComposite in2="hardAlpha" operator="out"/>
<feColorMatrix type="matrix" values="0 0 0 0 0 0 0 0 0 0 0 0 0 0 0 0 0 0 0.25 0"/>
<feBlend mode="normal" in2="BackgroundImageFix" result="effect1_dropShadow_34_57"/>
<feBlend mode="normal" in="SourceGraphic" in2="effect1_dropShadow_34_57" result="shape"/>
</filter>
<filter id="filter2_d_34_57" x="271.79" y="73.9282" width="309.978" height="477.766" filterUnits="userSpaceOnUse" color-interpolation-filters="sRGB">
<feFlood flood-opacity="0" result="BackgroundImageFix"/>
<feColorMatrix in="SourceAlpha" type="matrix" values="0 0 0 0 0 0 0 0 0 0 0 0 0 0 0 0 0 0 127 0" result="hardAlpha"/>
<feOffset dy="4"/>
<feGaussianBlur stdDeviation="8"/>
<feComposite in2="hardAlpha" operator="out"/>
<feColorMatrix type="matrix" values="0 0 0 0 0.447917 0 0 0 0 0.447917 0 0 0 0 0.447917 0 0 0 0.25 0"/>
<feBlend mode="normal" in2="BackgroundImageFix" result="effect1_dropShadow_34_57"/>
<feBlend mode="normal" in="SourceGraphic" in2="effect1_dropShadow_34_57" result="shape"/>
</filter>
<filter id="filter3_d_34_57" x="83.1162" y="73.5481" width="309.979" height="477.766" filterUnits="userSpaceOnUse" color-interpolation-filters="sRGB">
<feFlood flood-opacity="0" result="BackgroundImageFix"/>
<feColorMatrix in="SourceAlpha" type="matrix" values="0 0 0 0 0 0 0 0 0 0 0 0 0 0 0 0 0 0 127 0" result="hardAlpha"/>
<feOffset dy="4"/>
<feGaussianBlur stdDeviation="8"/>
<feComposite in2="hardAlpha" operator="out"/>
<feColorMatrix type="matrix" values="0 0 0 0 0.447917 0 0 0 0 0.447917 0 0 0 0 0.447917 0 0 0 0.25 0"/>
<feBlend mode="normal" in2="BackgroundImageFix" result="effect1_dropShadow_34_57"/>
<feBlend mode="normal" in="SourceGraphic" in2="effect1_dropShadow_34_57" result="shape"/>
</filter>
<filter id="filter4_d_34_57" x="164.836" y="0.299805" width="335.212" height="585.4" filterUnits="userSpaceOnUse" color-interpolation-filters="sRGB">
<feFlood flood-opacity="0" result="BackgroundImageFix"/>
<feColorMatrix in="SourceAlpha" type="matrix" values="0 0 0 0 0 0 0 0 0 0 0 0 0 0 0 0 0 0 127 0" result="hardAlpha"/>
<feOffset dy="4"/>
<feGaussianBlur stdDeviation="25"/>
<feComposite in2="hardAlpha" operator="out"/>
<feColorMatrix type="matrix" values="0 0 0 0 0.447917 0 0 0 0 0.447917 0 0 0 0 0.447917 0 0 0 0.25 0"/>
<feBlend mode="normal" in2="BackgroundImageFix" result="effect1_dropShadow_34_57"/>
<feBlend mode="normal" in="SourceGraphic" in2="effect1_dropShadow_34_57" result="shape"/>
</filter>
<filter id="filter5_df_34_57" x="288.82" y="213.719" width="88.501" height="324.723" filterUnits="userSpaceOnUse" color-interpolation-filters="sRGB">
<feFlood flood-opacity="0" result="BackgroundImageFix"/>
<feColorMatrix in="SourceAlpha" type="matrix" values="0 0 0 0 0 0 0 0 0 0 0 0 0 0 0 0 0 0 127 0" result="hardAlpha"/>
<feOffset dy="4"/>
<feGaussianBlur stdDeviation="2"/>
<feComposite in2="hardAlpha" operator="out"/>
<feColorMatrix type="matrix" values="0 0 0 0 1 0 0 0 0 0.6875 0 0 0 0 0.6875 0 0 0 0.25 0"/>
<feBlend mode="normal" in2="BackgroundImageFix" result="effect1_dropShadow_34_57"/>
<feBlend mode="normal" in="SourceGraphic" in2="effect1_dropShadow_34_57" result="shape"/>
<feGaussianBlur stdDeviation="1.95" result="effect2_foregroundBlur_34_57"/>
</filter>
<linearGradient id="paint0_linear_34_57" x1="12.3272" y1="166.049" x2="331.813" y2="544.024" gradientUnits="userSpaceOnUse">
<stop offset="0.00717264" stop-color="#F2A063"/>
<stop offset="0.64" stop-color="#FC967A"/>
<stop offset="1" stop-color="#FBD8D1"/>
</linearGradient>
<linearGradient id="paint1_linear_34_57" x1="653.186" y1="166.049" x2="337.473" y2="525.156" gradientUnits="userSpaceOnUse">
<stop stop-color="#FFAA68"/>
<stop offset="0.615" stop-color="#FE947E"/>
<stop offset="1" stop-color="#FBDCD9"/>
</linearGradient>
<linearGradient id="paint2_linear_34_57" x1="517.341" y1="85.9282" x2="333.699" y2="531.196" gradientUnits="userSpaceOnUse">
<stop stop-color="#EE8A76"/>
<stop offset="0.355" stop-color="#FFA47A"/>
<stop offset="0.67374" stop-color="#FFAF9A"/>
<stop offset="1" stop-color="#FBDAD5"/>
</linearGradient>
<linearGradient id="paint3_linear_34_57" x1="147.542" y1="85.5481" x2="331.184" y2="530.816" gradientUnits="userSpaceOnUse">
<stop stop-color="#EE8A76"/>
<stop offset="0.355" stop-color="#FFA47A"/>
<stop offset="0.67374" stop-color="#FFAF9A"/>
<stop offset="1" stop-color="#FBDAD5"/>
</linearGradient>
<linearGradient id="paint4_linear_34_57" x1="332.442" y1="46.2998" x2="332.442" y2="531.7" gradientUnits="userSpaceOnUse">
<stop stop-color="#F39069"/>
<stop offset="0.273283" stop-color="#FEAC86"/>
<stop offset="0.417325" stop-color="#FFB49D"/>
<stop offset="1" stop-color="#FCDBD6"/>
</linearGradient>
<linearGradient id="paint5_linear_34_57" x1="333.071" y1="217.619" x2="333.071" y2="530.443" gradientUnits="userSpaceOnUse">
<stop stop-color="#FFC3AA" stop-opacity="0.8"/>
<stop offset="1" stop-color="#FFF2F1"/>
</linearGradient>
</defs>
</svg>
